<mxfile host="app.diagrams.net" modified="2020-08-12T09:05:29.572Z" agent="5.0 (Windows NT 10.0; Win64; x64) AppleWebKit/537.36 (KHTML, like Gecko) Chrome/84.0.4147.105 Safari/537.36" etag="oEqD6jSH-YBWNARHbfEt" version="13.6.2" type="github">
  <diagram id="ysgxsM4BQP19nvBcSjX_" name="Page-1">
    <mxGraphModel dx="954" dy="819" grid="1" gridSize="10" guides="1" tooltips="1" connect="1" arrows="1" fold="1" page="1" pageScale="1" pageWidth="827" pageHeight="1169" math="0" shadow="0">
      <root>
        <mxCell id="0" />
        <mxCell id="1" parent="0" />
        <mxCell id="-JZ2Pr5o-1_vg5UID6oK-1" value="&lt;font color=&quot;#ff0000&quot; style=&quot;font-size: 17px&quot;&gt;0000 0011&lt;/font&gt;" style="rounded=0;whiteSpace=wrap;html=1;fillColor=#f5f5f5;strokeColor=#666666;fontColor=#333333;" vertex="1" parent="1">
          <mxGeometry x="254" y="190" width="120" height="40" as="geometry" />
        </mxCell>
        <mxCell id="-JZ2Pr5o-1_vg5UID6oK-2" value="&lt;font style=&quot;font-size: 16px&quot;&gt;3&lt;/font&gt;" style="text;html=1;align=center;verticalAlign=middle;resizable=0;points=[];autosize=1;fillColor=#e1d5e7;strokeColor=#9673a6;" vertex="1" parent="1">
          <mxGeometry x="304" y="160" width="20" height="20" as="geometry" />
        </mxCell>
        <mxCell id="-JZ2Pr5o-1_vg5UID6oK-3" value="&lt;font style=&quot;font-size: 16px&quot;&gt;原始数值&lt;/font&gt;" style="text;html=1;align=center;verticalAlign=middle;resizable=0;points=[];autosize=1;" vertex="1" parent="1">
          <mxGeometry x="124" y="200" width="80" height="20" as="geometry" />
        </mxCell>
        <mxCell id="-JZ2Pr5o-1_vg5UID6oK-20" style="edgeStyle=orthogonalEdgeStyle;rounded=0;orthogonalLoop=1;jettySize=auto;html=1;entryX=0.5;entryY=0;entryDx=0;entryDy=0;" edge="1" parent="1" source="-JZ2Pr5o-1_vg5UID6oK-4" target="-JZ2Pr5o-1_vg5UID6oK-19">
          <mxGeometry relative="1" as="geometry" />
        </mxCell>
        <mxCell id="-JZ2Pr5o-1_vg5UID6oK-4" value="&lt;font color=&quot;#ff0000&quot; style=&quot;font-size: 17px&quot;&gt;0000 0011&lt;/font&gt;" style="rounded=0;whiteSpace=wrap;html=1;fillColor=#f5f5f5;strokeColor=#666666;fontColor=#333333;" vertex="1" parent="1">
          <mxGeometry x="254" y="310" width="120" height="40" as="geometry" />
        </mxCell>
        <mxCell id="-JZ2Pr5o-1_vg5UID6oK-6" value="&lt;font style=&quot;font-size: 16px&quot;&gt;正数，最高位是0&lt;br&gt;&lt;/font&gt;" style="text;html=1;align=center;verticalAlign=middle;resizable=0;points=[];autosize=1;" vertex="1" parent="1">
          <mxGeometry x="70" y="320" width="140" height="20" as="geometry" />
        </mxCell>
        <mxCell id="-JZ2Pr5o-1_vg5UID6oK-7" value="&lt;font color=&quot;#ff0000&quot; style=&quot;font-size: 17px&quot;&gt;0000 0101&lt;/font&gt;" style="rounded=0;whiteSpace=wrap;html=1;fillColor=#fff2cc;strokeColor=#d6b656;" vertex="1" parent="1">
          <mxGeometry x="464" y="190" width="120" height="40" as="geometry" />
        </mxCell>
        <mxCell id="-JZ2Pr5o-1_vg5UID6oK-8" value="&lt;font style=&quot;font-size: 16px&quot;&gt;-5&lt;/font&gt;" style="text;html=1;align=center;verticalAlign=middle;resizable=0;points=[];autosize=1;fillColor=#e1d5e7;strokeColor=#9673a6;" vertex="1" parent="1">
          <mxGeometry x="509" y="160" width="30" height="20" as="geometry" />
        </mxCell>
        <mxCell id="-JZ2Pr5o-1_vg5UID6oK-9" value="&lt;font style=&quot;font-size: 16px&quot;&gt;原始数值&lt;/font&gt;" style="text;html=1;align=center;verticalAlign=middle;resizable=0;points=[];autosize=1;" vertex="1" parent="1">
          <mxGeometry x="624" y="200" width="80" height="20" as="geometry" />
        </mxCell>
        <mxCell id="-JZ2Pr5o-1_vg5UID6oK-10" value="&lt;font color=&quot;#ff0000&quot; style=&quot;font-size: 17px&quot;&gt;1111 1010&lt;/font&gt;" style="rounded=0;whiteSpace=wrap;html=1;fillColor=#fff2cc;strokeColor=#d6b656;" vertex="1" parent="1">
          <mxGeometry x="464" y="250" width="120" height="40" as="geometry" />
        </mxCell>
        <mxCell id="-JZ2Pr5o-1_vg5UID6oK-21" style="edgeStyle=orthogonalEdgeStyle;rounded=0;orthogonalLoop=1;jettySize=auto;html=1;entryX=0.5;entryY=0;entryDx=0;entryDy=0;" edge="1" parent="1" source="-JZ2Pr5o-1_vg5UID6oK-11" target="-JZ2Pr5o-1_vg5UID6oK-19">
          <mxGeometry relative="1" as="geometry" />
        </mxCell>
        <mxCell id="-JZ2Pr5o-1_vg5UID6oK-11" value="&lt;font color=&quot;#ff0000&quot; style=&quot;font-size: 17px&quot;&gt;1111 1011&lt;/font&gt;" style="rounded=0;whiteSpace=wrap;html=1;fillColor=#fff2cc;strokeColor=#d6b656;" vertex="1" parent="1">
          <mxGeometry x="464" y="310" width="120" height="40" as="geometry" />
        </mxCell>
        <mxCell id="-JZ2Pr5o-1_vg5UID6oK-12" value="&lt;font style=&quot;font-size: 16px&quot;&gt;取反&lt;/font&gt;" style="text;html=1;align=center;verticalAlign=middle;resizable=0;points=[];autosize=1;" vertex="1" parent="1">
          <mxGeometry x="639" y="260" width="50" height="20" as="geometry" />
        </mxCell>
        <mxCell id="-JZ2Pr5o-1_vg5UID6oK-13" value="&lt;span style=&quot;font-size: 16px&quot;&gt;加1&lt;/span&gt;" style="text;html=1;align=center;verticalAlign=middle;resizable=0;points=[];autosize=1;" vertex="1" parent="1">
          <mxGeometry x="644" y="320" width="40" height="20" as="geometry" />
        </mxCell>
        <mxCell id="-JZ2Pr5o-1_vg5UID6oK-14" value="" style="endArrow=classic;html=1;exitX=0.5;exitY=1;exitDx=0;exitDy=0;entryX=0.5;entryY=0;entryDx=0;entryDy=0;" edge="1" parent="1" source="-JZ2Pr5o-1_vg5UID6oK-7" target="-JZ2Pr5o-1_vg5UID6oK-10">
          <mxGeometry width="50" height="50" relative="1" as="geometry">
            <mxPoint x="504" y="450" as="sourcePoint" />
            <mxPoint x="554" y="400" as="targetPoint" />
          </mxGeometry>
        </mxCell>
        <mxCell id="-JZ2Pr5o-1_vg5UID6oK-15" value="" style="endArrow=classic;html=1;exitX=0.5;exitY=1;exitDx=0;exitDy=0;entryX=0.5;entryY=0;entryDx=0;entryDy=0;" edge="1" parent="1" source="-JZ2Pr5o-1_vg5UID6oK-10" target="-JZ2Pr5o-1_vg5UID6oK-11">
          <mxGeometry width="50" height="50" relative="1" as="geometry">
            <mxPoint x="533.9999999999998" y="240" as="sourcePoint" />
            <mxPoint x="533.9999999999998" y="260" as="targetPoint" />
          </mxGeometry>
        </mxCell>
        <mxCell id="-JZ2Pr5o-1_vg5UID6oK-29" style="edgeStyle=orthogonalEdgeStyle;rounded=0;orthogonalLoop=1;jettySize=auto;html=1;entryX=0.5;entryY=0;entryDx=0;entryDy=0;" edge="1" parent="1" source="-JZ2Pr5o-1_vg5UID6oK-19" target="-JZ2Pr5o-1_vg5UID6oK-24">
          <mxGeometry relative="1" as="geometry" />
        </mxCell>
        <mxCell id="-JZ2Pr5o-1_vg5UID6oK-19" value="&lt;font color=&quot;#ff0000&quot; style=&quot;font-size: 17px&quot;&gt;1111 1110&lt;/font&gt;" style="rounded=0;whiteSpace=wrap;html=1;fillColor=#dae8fc;strokeColor=#6c8ebf;" vertex="1" parent="1">
          <mxGeometry x="354" y="430" width="120" height="40" as="geometry" />
        </mxCell>
        <mxCell id="-JZ2Pr5o-1_vg5UID6oK-22" value="&lt;font style=&quot;font-size: 16px&quot;&gt;结果为负数，高位是1&lt;br&gt;&lt;/font&gt;" style="text;html=1;align=center;verticalAlign=middle;resizable=0;points=[];autosize=1;" vertex="1" parent="1">
          <mxGeometry x="134" y="440" width="170" height="20" as="geometry" />
        </mxCell>
        <mxCell id="-JZ2Pr5o-1_vg5UID6oK-23" value="&lt;font style=&quot;font-size: 16px&quot;&gt;负数取反&lt;br&gt;&lt;/font&gt;" style="text;html=1;align=center;verticalAlign=middle;resizable=0;points=[];autosize=1;" vertex="1" parent="1">
          <mxGeometry x="204" y="520" width="80" height="20" as="geometry" />
        </mxCell>
        <mxCell id="-JZ2Pr5o-1_vg5UID6oK-30" style="edgeStyle=orthogonalEdgeStyle;rounded=0;orthogonalLoop=1;jettySize=auto;html=1;entryX=0.5;entryY=0;entryDx=0;entryDy=0;" edge="1" parent="1" source="-JZ2Pr5o-1_vg5UID6oK-24" target="-JZ2Pr5o-1_vg5UID6oK-26">
          <mxGeometry relative="1" as="geometry" />
        </mxCell>
        <mxCell id="-JZ2Pr5o-1_vg5UID6oK-24" value="&lt;font color=&quot;#ff0000&quot; style=&quot;font-size: 17px&quot;&gt;0000 0001&lt;/font&gt;" style="rounded=0;whiteSpace=wrap;html=1;fillColor=#dae8fc;strokeColor=#6c8ebf;" vertex="1" parent="1">
          <mxGeometry x="354" y="510" width="120" height="40" as="geometry" />
        </mxCell>
        <mxCell id="-JZ2Pr5o-1_vg5UID6oK-25" value="&lt;font style=&quot;font-size: 16px&quot;&gt;取反后 +1&lt;br&gt;&lt;/font&gt;" style="text;html=1;align=center;verticalAlign=middle;resizable=0;points=[];autosize=1;" vertex="1" parent="1">
          <mxGeometry x="204" y="600" width="90" height="20" as="geometry" />
        </mxCell>
        <mxCell id="-JZ2Pr5o-1_vg5UID6oK-32" style="edgeStyle=orthogonalEdgeStyle;rounded=0;orthogonalLoop=1;jettySize=auto;html=1;entryX=0.504;entryY=0.068;entryDx=0;entryDy=0;entryPerimeter=0;" edge="1" parent="1" source="-JZ2Pr5o-1_vg5UID6oK-26" target="-JZ2Pr5o-1_vg5UID6oK-31">
          <mxGeometry relative="1" as="geometry" />
        </mxCell>
        <mxCell id="-JZ2Pr5o-1_vg5UID6oK-26" value="&lt;font color=&quot;#ff0000&quot; style=&quot;font-size: 17px&quot;&gt;0000 0010&lt;/font&gt;" style="rounded=0;whiteSpace=wrap;html=1;fillColor=#dae8fc;strokeColor=#6c8ebf;" vertex="1" parent="1">
          <mxGeometry x="354" y="590" width="120" height="40" as="geometry" />
        </mxCell>
        <mxCell id="-JZ2Pr5o-1_vg5UID6oK-27" value="&lt;font style=&quot;font-size: 16px&quot;&gt;结果加上符号位&lt;br&gt;&lt;/font&gt;" style="text;html=1;align=center;verticalAlign=middle;resizable=0;points=[];autosize=1;" vertex="1" parent="1">
          <mxGeometry x="204" y="675" width="130" height="20" as="geometry" />
        </mxCell>
        <mxCell id="-JZ2Pr5o-1_vg5UID6oK-31" value="&lt;font style=&quot;font-size: 17px&quot;&gt;-2&lt;/font&gt;" style="text;html=1;align=center;verticalAlign=middle;resizable=0;points=[];autosize=1;fillColor=#d5e8d4;strokeColor=#82b366;" vertex="1" parent="1">
          <mxGeometry x="399" y="675" width="30" height="20" as="geometry" />
        </mxCell>
        <mxCell id="-JZ2Pr5o-1_vg5UID6oK-33" value="CPU运算位数变化" style="rounded=1;whiteSpace=wrap;html=1;strokeWidth=3;fontStyle=1;fontSize=21;fillColor=#ffe6cc;strokeColor=#d79b00;" vertex="1" parent="1">
          <mxGeometry x="286" y="60" width="256" height="70" as="geometry" />
        </mxCell>
      </root>
    </mxGraphModel>
  </diagram>
</mxfile>
